<?xml version="1.0" encoding="utf-8" ?>
<svg baseProfile="full" height="297mm" version="1.1" viewBox="0 0 420 297" width="420mm" xmlns="http://www.w3.org/2000/svg" xmlns:ev="http://www.w3.org/2001/xml-events" xmlns:xlink="http://www.w3.org/1999/xlink"><defs /><g id="cover"><rect fill="#111111" height="297" opacity="1" rx="0" stroke="none" stroke-width="0.2" width="420" x="0" y="0" /><rect fill="#E8C86A" height="0.8" opacity="1" rx="0" stroke="none" stroke-width="0.2" width="420" x="0" y="184.14" /><rect fill="#E8C86A" height="60" opacity="1" rx="0" stroke="none" stroke-width="0.2" width="0.8" x="18" y="28" /><text fill="#EED88A" style="font-size:22mm;font-family:SimHei, STHeiti, sans-serif;font-weight:bold;" text-anchor="start" x="22" y="52">字体编排</text><text fill="#EED88A" style="font-size:22mm;font-family:SimHei, STHeiti, sans-serif;font-weight:bold;" text-anchor="start" x="22" y="76">设计手册</text><text fill="#AAAA99" style="font-size:7.5mm;font-family:Helvetica Neue, Arial, sans-serif;font-weight:normal;" text-anchor="start" x="22" y="104">Typography &amp; Type Design Manual</text><text fill="#787068" style="font-size:4.2mm;font-family:SimSun, STSong, serif;font-weight:normal;" text-anchor="start" x="22" y="114">色彩系统  ·  拉丁字体  ·  汉字编排  ·  字号规范  ·  行距字距实验</text><rect fill="#8B6914" height="9" opacity="1" rx="1" stroke="none" stroke-width="0.2" width="72" x="22" y="152" /><text fill="#FFFFFF" style="font-size:3.8mm;font-family:SimHei, STHeiti, sans-serif;font-weight:bold;" text-anchor="start" x="26" y="158.5">色相环 CMYK</text><rect fill="#2D5A9E" height="9" opacity="1" rx="1" stroke="none" stroke-width="0.2" width="72" x="99" y="152" /><text fill="#FFFFFF" style="font-size:3.8mm;font-family:SimHei, STHeiti, sans-serif;font-weight:bold;" text-anchor="start" x="103" y="158.5">30款拉丁字体</text><rect fill="#2E7D52" height="9" opacity="1" rx="1" stroke="none" stroke-width="0.2" width="72" x="176" y="152" /><text fill="#FFFFFF" style="font-size:3.8mm;font-family:SimHei, STHeiti, sans-serif;font-weight:bold;" text-anchor="start" x="180" y="158.5">汉字8大类</text><rect fill="#8B3520" height="9" opacity="1" rx="1" stroke="none" stroke-width="0.2" width="72" x="253" y="152" /><text fill="#FFFFFF" style="font-size:3.8mm;font-family:SimHei, STHeiti, sans-serif;font-weight:bold;" text-anchor="start" x="257" y="158.5">字号规范表</text><rect fill="#6B3D7A" height="9" opacity="1" rx="1" stroke="none" stroke-width="0.2" width="72" x="330" y="152" /><text fill="#FFFFFF" style="font-size:3.8mm;font-family:SimHei, STHeiti, sans-serif;font-weight:bold;" text-anchor="start" x="334" y="158.5">行距·字距实验</text><text fill="#555045" style="font-size:3.5mm;font-family:SimSun, STSong, serif;font-weight:normal;" text-anchor="start" x="22" y="287">公共场域与数字叙事（二）  ·  设计编排工作手册  ·  2025–2026</text><rect fill="#E8C86A" height="3.5" opacity="0.12" rx="0" stroke="none" stroke-width="0.2" width="3.5" x="365.0" y="20.0" /><rect fill="#E8C86A" height="3.5" opacity="0.12" rx="0" stroke="none" stroke-width="0.2" width="3.5" x="365.0" y="33.5" /><rect fill="#E8C86A" height="3.5" opacity="0.16999999999999998" rx="0" stroke="none" stroke-width="0.2" width="3.5" x="369.5" y="29.0" /><rect fill="#E8C86A" height="3.5" opacity="0.22" rx="0" stroke="none" stroke-width="0.2" width="3.5" x="374.0" y="24.5" /><rect fill="#E8C86A" height="3.5" opacity="0.27" rx="0" stroke="none" stroke-width="0.2" width="3.5" x="378.5" y="20.0" /><rect fill="#E8C86A" height="3.5" opacity="0.27" rx="0" stroke="none" stroke-width="0.2" width="3.5" x="378.5" y="33.5" /><rect fill="#E8C86A" height="3.5" opacity="0.12" rx="0" stroke="none" stroke-width="0.2" width="3.5" x="383.0" y="29.0" /><rect fill="#E8C86A" height="3.5" opacity="0.16999999999999998" rx="0" stroke="none" stroke-width="0.2" width="3.5" x="387.5" y="24.5" /><rect fill="#E8C86A" height="3.5" opacity="0.22" rx="0" stroke="none" stroke-width="0.2" width="3.5" x="392.0" y="20.0" /><rect fill="#E8C86A" height="3.5" opacity="0.22" rx="0" stroke="none" stroke-width="0.2" width="3.5" x="392.0" y="33.5" /><rect fill="#E8C86A" height="3.5" opacity="0.27" rx="0" stroke="none" stroke-width="0.2" width="3.5" x="396.5" y="29.0" /><rect fill="#E8C86A" height="3.5" opacity="0.12" rx="0" stroke="none" stroke-width="0.2" width="3.5" x="401.0" y="24.5" /><rect fill="#E8C86A" height="3.5" opacity="0.16999999999999998" rx="0" stroke="none" stroke-width="0.2" width="3.5" x="405.5" y="20.0" /><rect fill="#E8C86A" height="3.5" opacity="0.16999999999999998" rx="0" stroke="none" stroke-width="0.2" width="3.5" x="405.5" y="33.5" /><rect fill="#E8C86A" height="3.5" opacity="0.22" rx="0" stroke="none" stroke-width="0.2" width="3.5" x="410.0" y="29.0" /><rect fill="#E8C86A" height="3.5" opacity="0.27" rx="0" stroke="none" stroke-width="0.2" width="3.5" x="414.5" y="24.5" /></g></svg>